<svg width="56" height="56" viewBox="0 0 56 56" fill="none" xmlns="http://www.w3.org/2000/svg">
<circle cx="28" cy="28" r="28" fill="#3827C7"/>
<circle cx="28" cy="28" r="28" fill="#3827C7"/>
<g clip-path="url(#clip0_55292_25831)">
<path d="M21.7138 20.4862C22.1118 20.8846 22.3353 21.4247 22.3353 21.9878C22.3353 22.551 22.1118 23.0911 21.7138 23.4895L17.2088 27.9987L21.7167 32.5066C22.1151 32.9052 22.3389 33.4458 22.3388 34.0095C22.3386 34.5731 22.1146 35.1136 21.716 35.512C21.3173 35.9105 20.7767 36.1343 20.2131 36.1341C19.6495 36.134 19.109 35.91 18.7105 35.5113L12.6996 29.5004C12.3016 29.102 12.0781 28.5619 12.0781 27.9987C12.0781 27.4356 12.3016 26.8955 12.6996 26.4971L18.7091 20.4862C18.9064 20.2887 19.1407 20.132 19.3987 20.0252C19.6566 19.9183 19.933 19.8633 20.2122 19.8633C20.4913 19.8633 20.7678 19.9183 21.0257 20.0252C21.2836 20.132 21.5165 20.2887 21.7138 20.4862Z" fill="url(#paint0_linear_55292_25831)"/>
<path d="M31.7178 14.772C31.9867 14.8473 32.2381 14.9748 32.4577 15.1472C32.6773 15.3197 32.8608 15.5337 32.9976 15.7771C33.1344 16.0205 33.2219 16.2885 33.2551 16.5657C33.2883 16.843 33.2666 17.124 33.1911 17.3929L26.9139 39.7578C26.7617 40.3005 26.4002 40.7606 25.9088 41.0367C25.4174 41.3129 24.8365 41.3826 24.2937 41.2304C23.751 41.0782 23.2909 40.7167 23.0148 40.2253C22.7386 39.734 22.6689 39.153 22.8211 38.6103L29.0984 16.2425C29.1737 15.9738 29.3013 15.7225 29.4739 15.503C29.6464 15.2836 29.8604 15.1003 30.1038 14.9636C30.3472 14.8269 30.6151 14.7395 30.8923 14.7064C31.1695 14.6733 31.4505 14.6951 31.7192 14.7706L31.7178 14.772Z" fill="url(#paint1_linear_55292_25831)"/>
<path d="M34.2935 23.4922C34.0847 23.2976 33.9173 23.063 33.8011 22.8024C33.685 22.5417 33.6226 22.2603 33.6175 21.975C33.6125 21.6897 33.665 21.4062 33.7718 21.1416C33.8787 20.877 34.0378 20.6367 34.2396 20.4349C34.4414 20.2331 34.6817 20.074 34.9463 19.9672C35.2109 19.8603 35.4943 19.8078 35.7797 19.8128C36.065 19.8179 36.3464 19.8803 36.6071 19.9965C36.8677 20.1126 37.1023 20.2801 37.2969 20.4888L43.3078 26.4983C43.7062 26.8968 43.93 27.4372 43.93 28.0007C43.93 28.5642 43.7062 29.1046 43.3078 29.5031L37.2983 35.514C37.101 35.7114 36.8667 35.868 36.6089 35.9749C36.3511 36.0817 36.0748 36.1367 35.7957 36.1368C35.5166 36.1369 35.2402 36.082 34.9824 35.9752C34.7245 35.8685 34.4902 35.712 34.2928 35.5147C34.0954 35.3174 33.9388 35.0832 33.832 34.8254C33.7251 34.5676 33.6701 34.2912 33.67 34.0121C33.6699 33.7331 33.7249 33.4567 33.8316 33.1988C33.9383 32.941 34.0948 32.7066 34.2921 32.5093L38.7999 28.0014L34.2935 23.4922Z" fill="url(#paint2_linear_55292_25831)"/>
</g>
<defs>
<linearGradient id="paint0_linear_55292_25831" x1="16.1645" y1="20.7132" x2="19.8073" y2="34.9811" gradientUnits="userSpaceOnUse">
<stop offset="0.142607" stop-color="white"/>
<stop offset="0.814792" stop-color="white" stop-opacity="0.6"/>
</linearGradient>
<linearGradient id="paint1_linear_55292_25831" x1="26.487" y1="38.626" x2="30.737" y2="14.6438" gradientUnits="userSpaceOnUse">
<stop stop-color="white" stop-opacity="0.3"/>
<stop offset="0.75334" stop-color="white" stop-opacity="0.7"/>
</linearGradient>
<linearGradient id="paint2_linear_55292_25831" x1="40.4499" y1="18.5908" x2="36.4905" y2="33.766" gradientUnits="userSpaceOnUse">
<stop offset="0.142607" stop-color="white"/>
<stop offset="0.814792" stop-color="white" stop-opacity="0.6"/>
</linearGradient>
<clipPath id="clip0_55292_25831">
<rect width="34" height="34" fill="white" transform="translate(11 11)"/>
</clipPath>
</defs>
</svg>
