<svg width="56" height="56" viewBox="0 0 56 56" fill="none" xmlns="http://www.w3.org/2000/svg">
<circle cx="28" cy="28" r="28" fill="#3827C7"/>
<circle cx="28" cy="28" r="28" fill="#3827C7"/>
<path d="M10.0039 32.0468C10.0039 28.3729 12.9822 25.3945 16.6562 25.3945H17.2723C18.5731 25.3945 19.85 25.7436 20.9699 26.4054L23.5258 27.9156C24.9172 28.7379 26.1925 29.7425 27.3176 30.9028L34.8777 38.6991H16.6562C12.9822 38.6991 10.0039 35.7208 10.0039 32.0468Z" fill="url(#paint0_linear_55292_25910)"/>
<path d="M39.5046 27.9984C39.5046 30.0611 38.921 31.9875 37.91 33.6215C36.024 36.6694 32.6507 38.6999 28.8031 38.6999C22.8928 38.6999 18.1016 33.9087 18.1016 27.9984C18.1016 22.0881 22.8928 17.2969 28.8031 17.2969C34.7134 17.2969 39.5046 22.0881 39.5046 27.9984Z" fill="url(#paint1_linear_55292_25910)"/>
<path d="M37.91 33.6215C36.024 36.6694 32.6507 38.6999 28.8031 38.6999H40.3723L37.91 33.6215Z" fill="url(#paint2_linear_55292_25910)"/>
<circle cx="40.3704" cy="33.2063" r="5.49538" fill="url(#paint3_linear_55292_25910)"/>
<defs>
<linearGradient id="paint0_linear_55292_25910" x1="23.3085" y1="27.9976" x2="7.40083" y2="41.3022" gradientUnits="userSpaceOnUse">
<stop offset="0.170588" stop-color="white" stop-opacity="0.15"/>
<stop offset="0.609018" stop-color="white" stop-opacity="0.35"/>
</linearGradient>
<linearGradient id="paint1_linear_55292_25910" x1="35.4554" y1="38.6999" x2="26.9732" y2="20.5781" gradientUnits="userSpaceOnUse">
<stop offset="0.685465" stop-color="white"/>
<stop offset="1" stop-color="white" stop-opacity="0.6"/>
</linearGradient>
<linearGradient id="paint2_linear_55292_25910" x1="35.4554" y1="38.6999" x2="26.9732" y2="20.5781" gradientUnits="userSpaceOnUse">
<stop offset="0.685465" stop-color="white"/>
<stop offset="1" stop-color="white" stop-opacity="0.6"/>
</linearGradient>
<linearGradient id="paint3_linear_55292_25910" x1="31.9827" y1="38.9909" x2="42.543" y2="34.1625" gradientUnits="userSpaceOnUse">
<stop offset="0.683926" stop-color="white"/>
<stop offset="1" stop-color="white" stop-opacity="0.6"/>
</linearGradient>
</defs>
</svg>
