<svg width="56" height="56" viewBox="0 0 56 56" fill="none" xmlns="http://www.w3.org/2000/svg">
<circle cx="28" cy="28" r="28" fill="#3827C7"/>
<circle cx="28" cy="28" r="28" fill="#3827C7"/>
<path d="M17.9837 37.7054C15.768 37.2155 13.7527 35.9684 12.3609 34.2203C11.5481 33.196 10.8689 31.8376 10.5794 30.6574L10.4458 30.0784L10.1451 30.3456C9.62182 30.8355 9.26552 31.0025 8.7422 31.0025C7.46176 31.0025 6.60441 29.6441 7.1834 28.5418C7.27247 28.3637 8.2857 27.3171 9.44367 26.2148C12.4499 23.3421 12.2607 23.3421 15.2781 26.3929C17.5606 28.6977 17.7276 28.9649 17.4827 29.8557C17.3379 30.3901 16.6142 31.0916 16.1688 31.1027C15.3337 31.1361 15.0665 31.0359 14.4541 30.4458C13.9308 29.9448 13.9197 30.1229 14.4207 31.0805C14.9552 32.0826 15.5676 32.7618 16.4583 33.3519C17.7499 34.2092 18.3177 34.3651 19.9879 34.3651C21.4131 34.3762 21.4576 34.3651 22.4931 33.942C23.6399 33.4855 24.0742 33.4632 24.6086 33.8529C25.388 34.4319 25.5996 35.3338 25.1319 36.1466C24.8425 36.6588 23.9183 37.1709 22.5822 37.5606C21.4799 37.8724 19.0971 37.9503 17.9837 37.7054Z" fill="url(#paint0_linear_55292_25881)"/>
<path d="M34.7068 37.5991C32.2016 37.1537 29.9079 35.6283 28.5161 33.5017C28.171 32.9784 27.4806 31.453 26.5565 29.2484C25.7771 27.3555 24.9866 25.5072 24.7973 25.1398C24.3853 24.3047 23.3275 23.2581 22.4257 22.7793C21.0005 22.0222 19.0631 21.8774 17.649 22.423C16.3686 22.9129 15.5558 22.7459 14.9434 21.844C14.4757 21.176 14.7207 20.1739 15.489 19.606C15.8453 19.3388 17.1925 18.8823 18.1167 18.7264C19.1299 18.5483 21.1229 18.6596 22.1028 18.9491C24.5635 19.6728 26.7903 21.4543 27.8592 23.5699C28.0485 23.9484 28.8724 25.8413 29.6852 27.7898C31.2552 31.5643 31.5892 32.1656 32.6247 32.9784C33.7938 33.9025 35.386 34.4036 36.8001 34.2811C37.2343 34.2477 38.0249 34.0695 38.5593 33.8802C39.4055 33.5908 39.6059 33.5574 39.9622 33.6576C41.521 34.0695 41.7771 36.018 40.3965 36.8086C38.9267 37.6548 36.6887 37.9554 34.7068 37.5991Z" fill="url(#paint1_linear_55292_25881)"/>
<path d="M43.1462 32.1525C42.4893 31.9298 38.6813 27.9994 38.5143 27.3648C38.2805 26.5297 38.737 25.6835 39.5832 25.3606C40.2624 25.0933 40.7635 25.2047 41.3759 25.7725C41.6431 26.0286 41.8992 26.1956 41.9326 26.1622C42.1107 25.9952 41.2088 24.5366 40.474 23.8018C39.1824 22.499 37.7795 21.9312 35.9089 21.9423C34.9068 21.9423 34.6396 22.0091 32.8692 22.6772C32.4795 22.8219 32.3014 22.8331 31.9562 22.744C31.0432 22.499 30.5533 21.7864 30.6535 20.8957C30.7203 20.2388 30.9987 19.8713 31.689 19.4928C33.1253 18.7022 35.2965 18.3125 37.0669 18.513C40.9862 18.9806 44.1372 21.5972 45.3285 25.3606C45.4622 25.7948 45.5846 26.1622 45.6069 26.1845C45.6292 26.2068 45.8185 26.0732 46.03 25.8839C46.2416 25.7057 46.5979 25.4942 46.8205 25.4162C48.2012 24.9597 49.5039 26.5519 48.8025 27.8324C48.6911 28.0217 47.689 29.0572 46.5756 30.1372C45.0279 31.6292 44.4601 32.108 44.126 32.1971C43.6139 32.3418 43.6918 32.3418 43.1462 32.1525Z" fill="url(#paint2_linear_55292_25881)"/>
<defs>
<linearGradient id="paint0_linear_55292_25881" x1="9.86269" y1="25.6183" x2="14.6234" y2="39.146" gradientUnits="userSpaceOnUse">
<stop offset="0.142607" stop-color="white"/>
<stop offset="0.916063" stop-color="white" stop-opacity="0.6"/>
</linearGradient>
<linearGradient id="paint1_linear_55292_25881" x1="39.4537" y1="35.6437" x2="15.8738" y2="23.5662" gradientUnits="userSpaceOnUse">
<stop stop-color="white" stop-opacity="0.3"/>
<stop offset="1" stop-color="white" stop-opacity="0.7"/>
</linearGradient>
<linearGradient id="paint2_linear_55292_25881" x1="33.2489" y1="21.8019" x2="37.3216" y2="35.8177" gradientUnits="userSpaceOnUse">
<stop offset="0.0839372" stop-color="white" stop-opacity="0.6"/>
<stop offset="0.857393" stop-color="white"/>
</linearGradient>
</defs>
</svg>
