<svg width="56" height="56" viewBox="0 0 56 56" fill="none" xmlns="http://www.w3.org/2000/svg">
<circle cx="28" cy="28" r="28" fill="#3827C7"/>
<rect width="56" height="56" rx="28" fill="#3827C7"/>
<rect width="42.7711" height="42.7711" transform="translate(6.375 6.375)" fill="#3827C7"/>
<path d="M13.4492 25.4453H31.3328V41.321H18.1186C15.5398 41.321 13.4492 39.2305 13.4492 36.6517V25.4453Z" fill="url(#paint0_linear_55292_25807)"/>
<path d="M31.3359 25.4453H42.0287V36.6517C42.0287 39.2305 39.9382 41.321 37.3594 41.321H31.3359V25.4453Z" fill="url(#paint1_linear_55292_25807)"/>
<path d="M13.4453 18.8881C13.4453 16.3093 15.5358 14.2188 18.1146 14.2188H37.3523C39.9311 14.2188 42.0216 16.3093 42.0216 18.8881V25.4485H13.4453V18.8881Z" fill="url(#paint2_linear_55292_25807)"/>
<defs>
<linearGradient id="paint0_linear_55292_25807" x1="15.5271" y1="43.1187" x2="26.3833" y2="24.0212" gradientUnits="userSpaceOnUse">
<stop offset="0.24666" stop-color="white" stop-opacity="0.7"/>
<stop offset="1" stop-color="white" stop-opacity="0.3"/>
</linearGradient>
<linearGradient id="paint1_linear_55292_25807" x1="42.0287" y1="28.7605" x2="27.7289" y2="34.8307" gradientUnits="userSpaceOnUse">
<stop stop-color="white" stop-opacity="0.35"/>
<stop offset="1" stop-color="white" stop-opacity="0.15"/>
</linearGradient>
<linearGradient id="paint2_linear_55292_25807" x1="16.0018" y1="28.3668" x2="39.3484" y2="12.9113" gradientUnits="userSpaceOnUse">
<stop offset="0.142607" stop-color="white"/>
<stop offset="0.814792" stop-color="white" stop-opacity="0.6"/>
</linearGradient>
</defs>
</svg>
